<svg width="41" height="40" viewBox="0 0 41 40" fill="none" xmlns="http://www.w3.org/2000/svg">
<g clip-path="url(#clip0_29_45)">
<circle cx="20.5" cy="20.5" r="13.5" fill="black"/>
<path d="M40.4243 37.3865L38.7267 31.3962C38.3921 30.2158 38.4529 28.9532 38.9336 27.8245C40.0471 25.2112 40.619 22.315 40.5095 19.2727C40.1323 8.70981 31.4496 0.191411 20.8837 0.00278886C9.55117 -0.198002 0.32391 9.02926 0.5247 20.3618C0.713323 30.9277 9.23173 39.6104 19.7915 39.9876C22.4505 40.0819 24.9969 39.656 27.3425 38.8042C29.2105 38.1257 31.2397 38.0101 33.1502 38.5547L37.9023 39.9055C39.4386 40.3436 40.8594 38.9228 40.4243 37.3865ZM11.5865 19.9998C11.5865 15.0652 15.5871 11.0646 20.5217 11.0646C25.4563 11.0646 29.4569 15.0652 29.4569 19.9998C29.4569 24.9344 25.4563 28.935 20.5217 28.935C15.5871 28.935 11.5865 24.9344 11.5865 19.9998Z" fill="url(#paint0_linear_29_45)"/>
<path d="M38.4137 29.0203C38.4137 29.0203 38.3437 28.7982 38.2068 28.4027C37.142 25.3848 31.964 12.3181 21.7267 11.1499C26.0924 11.7371 29.4572 15.476 29.4572 19.9999C29.4572 24.9345 25.4566 28.9351 20.522 28.9351V39.9969C22.9163 39.9969 25.2132 39.5801 27.3428 38.8073C29.2108 38.1289 31.24 38.0133 33.1505 38.5579L37.9026 39.9086C39.439 40.3437 40.8597 38.926 40.4247 37.3866L38.7271 31.3963C38.5263 30.6936 38.4715 29.9573 38.5597 29.2424L38.4137 29.0203Z" fill="url(#paint1_linear_29_45)"/>
</g>
<defs>
<linearGradient id="paint0_linear_29_45" x1="5.37371" y1="-0.000414156" x2="40.8972" y2="2.97001" gradientUnits="userSpaceOnUse">
<stop stop-color="#535AA5"/>
<stop offset="0.918782" stop-color="#212E62"/>
</linearGradient>
<linearGradient id="paint1_linear_29_45" x1="22.9459" y1="11.1499" x2="40.522" y2="13.5" gradientUnits="userSpaceOnUse">
<stop stop-color="#535AA5"/>
<stop offset="1" stop-color="#212E62"/>
</linearGradient>
<clipPath id="clip0_29_45">
<rect width="40" height="40" fill="white" transform="translate(0.521973)"/>
</clipPath>
</defs>
</svg>
